<svg width="18" height="19" viewBox="0 0 18 19" fill="none" xmlns="http://www.w3.org/2000/svg">
<path d="M6.55805 10.8271C6.55805 10.6016 6.37516 10.4189 6.14949 10.4189H4.72377C4.49836 10.4189 4.31543 10.6016 4.31543 10.8271V12.2526C4.31543 12.4784 4.49836 12.6612 4.72377 12.6612H6.14949C6.37516 12.6612 6.55805 12.4784 6.55805 12.2526V10.8271Z" fill="#E5E5E5"/>
<path d="M10.1211 10.8271C10.1211 10.6016 9.93814 10.4189 9.71291 10.4189H8.287C8.06159 10.4189 7.87866 10.6016 7.87866 10.8271V12.2526C7.87866 12.4784 8.06159 12.6612 8.287 12.6612H9.71291C9.93814 12.6612 10.1211 12.4784 10.1211 12.2526V10.8271Z" fill="#E5E5E5"/>
<path d="M13.6845 10.8271C13.6845 10.6016 13.5016 10.4189 13.2762 10.4189H11.8505C11.6248 10.4189 11.4419 10.6016 11.4419 10.8271V12.2526C11.4419 12.4784 11.6248 12.6612 11.8505 12.6612H13.2762C13.5016 12.6612 13.6845 12.4784 13.6845 12.2526V10.8271Z" fill="#E5E5E5"/>
<path d="M6.55805 14.3905C6.55805 14.1647 6.37516 13.9821 6.14949 13.9821H4.72377C4.49836 13.9821 4.31543 14.1647 4.31543 14.3905V15.8158C4.31543 16.0414 4.49836 16.2241 4.72377 16.2241H6.14949C6.37516 16.2241 6.55805 16.0414 6.55805 15.8158V14.3905Z" fill="#E5E5E5"/>
<path d="M10.1211 14.3905C10.1211 14.1647 9.93814 13.9821 9.71291 13.9821H8.287C8.06159 13.9821 7.87866 14.1647 7.87866 14.3905V15.8158C7.87866 16.0414 8.06159 16.2241 8.287 16.2241H9.71291C9.93814 16.2241 10.1211 16.0414 10.1211 15.8158V14.3905Z" fill="#E5E5E5"/>
<path d="M13.6845 14.3905C13.6845 14.1647 13.5016 13.9821 13.2764 13.9821H11.8505C11.6248 13.9821 11.4419 14.1647 11.4419 14.3905V15.8158C11.4419 16.0414 11.6248 16.2241 11.8505 16.2241H13.2764C13.5016 16.2241 13.6845 16.0414 13.6845 15.8158V14.3905Z" fill="#E5E5E5"/>
<path d="M16.2338 2.90081V5.0782C16.2338 6.06236 15.4354 6.85544 14.4514 6.85544H13.327C12.3429 6.85544 11.5339 6.06236 11.5339 5.0782V2.89299H6.46598V5.0782C6.46598 6.06236 5.65704 6.85544 4.6731 6.85544H3.54849C2.56451 6.85544 1.76616 6.06236 1.76616 5.0782V2.90081C0.906149 2.92673 0.199463 3.63836 0.199463 4.51304V17.2736C0.199463 18.1647 0.921746 18.8966 1.81287 18.8966H16.187C17.0768 18.8966 17.8004 18.1632 17.8004 17.2736V4.51304C17.8004 3.63836 17.0938 2.92673 16.2338 2.90081ZM15.7115 16.479C15.7115 16.8641 15.3993 17.1765 15.014 17.1765H2.95515C2.56989 17.1765 2.25765 16.8641 2.25765 16.479V9.88768C2.25765 9.50243 2.56986 9.19 2.95515 9.19H15.014C15.3992 9.19 15.7115 9.50243 15.7115 9.88768L15.7115 16.479Z" fill="#E5E5E5"/>
<path d="M3.54464 5.68814H4.65683C4.99441 5.68814 5.26812 5.41483 5.26812 5.07725V1.50768C5.26812 1.17007 4.99441 0.896576 4.65683 0.896576H3.54464C3.20703 0.896576 2.93335 1.17007 2.93335 1.50768V5.07725C2.93335 5.41483 3.20703 5.68814 3.54464 5.68814Z" fill="#E5E5E5"/>
<path d="M13.3127 5.68814H14.4249C14.7622 5.68814 15.0359 5.41483 15.0359 5.07725V1.50768C15.036 1.17007 14.7623 0.896576 14.4249 0.896576H13.3127C12.9751 0.896576 12.7014 1.17007 12.7014 1.50768V5.07725C12.7014 5.41483 12.9751 5.68814 13.3127 5.68814Z" fill="#E5E5E5"/>
</svg>
