<svg width="12" height="12" viewBox="0 0 12 12" fill="none" xmlns="http://www.w3.org/2000/svg">
<path d="M7.2321 6.11713L11.5577 1.79152C11.8265 1.523 11.8265 1.08732 11.5577 0.818808C11.289 0.550062 10.8538 0.550062 10.585 0.818808L6.25939 5.14442L1.93355 0.818808C1.6648 0.550062 1.22958 0.550062 0.960837 0.818808C0.692091 1.08732 0.692091 1.523 0.960837 1.79152L5.28668 6.11713L0.960837 10.4427C0.692091 10.7113 0.692091 11.1469 0.960837 11.4155C1.09521 11.5496 1.27132 11.6168 1.44719 11.6168C1.62307 11.6168 1.79918 11.5496 1.93355 11.4152L6.25939 7.08962L10.585 11.4152C10.7194 11.5496 10.8955 11.6168 11.0714 11.6168C11.2472 11.6168 11.4233 11.5496 11.5577 11.4152C11.8265 11.1467 11.8265 10.711 11.5577 10.4425L7.2321 6.11713Z" fill="#B0B0B0"/>
</svg>
