<svg width="19" height="18" viewBox="0 0 19 18" fill="none" xmlns="http://www.w3.org/2000/svg">
<path d="M18.1157 0.709484L14.843 0.709484L14.843 10.5277L18.1157 10.5277L18.1157 0.709484ZM0.115723 9.70948C0.115723 10.6095 0.852088 11.3458 1.75209 11.3458L6.90663 11.3458L6.08845 15.1095C6.08845 15.1913 6.08845 15.2731 6.08845 15.3549C6.08845 15.6822 6.25209 16.0095 6.41569 16.2549L7.31572 17.0731L12.7157 11.6731C13.043 11.4277 13.2066 11.0186 13.2066 10.5277L13.2066 2.34585C13.2066 1.44585 12.4703 0.709484 11.5703 0.709484L4.20663 0.709483C3.55209 0.709483 2.97936 1.11857 2.73391 1.6913L0.279361 7.50042C0.197541 7.66406 0.197541 7.90951 0.197541 8.07315L0.197541 9.70951L0.115723 9.70951C0.115723 9.62766 0.115723 9.70948 0.115723 9.70948Z" fill="#E71D36"/>
</svg>
