<svg width="25" height="18" viewBox="0 0 25 18" fill="none" xmlns="http://www.w3.org/2000/svg">
<path d="M18.5385 5.69564C18.2758 2.80371 16.2288 0.705546 13.6671 0.705546C11.9605 0.705546 10.3979 1.62395 9.5186 3.09588C8.64728 1.60491 7.14869 0.7052 5.46941 0.7052C2.90807 0.7052 0.860794 2.80336 0.598395 5.69529C0.577624 5.82303 0.492465 6.4953 0.751403 7.59164C1.12458 9.17296 1.98655 10.6113 3.24351 11.7502L9.51445 17.441L15.893 11.7506C17.15 10.6113 18.012 9.1733 18.3851 7.59164C18.6441 6.49565 18.5589 5.82338 18.5385 5.69564Z" fill="#FF7663"/>
<rect x="12.8677" y="2.89212" width="11.4015" height="11.4015" rx="5.70073" fill="#C4C4C4"/>
</svg>
