<svg width="19" height="17" viewBox="0 0 19 17" fill="none" xmlns="http://www.w3.org/2000/svg">
<path d="M0.870361 16.5928H4.14309V6.77464H0.870361V16.5928ZM18.8704 7.59282C18.8704 6.69282 18.134 5.95646 17.234 5.95646H12.0795L12.8976 2.19282C12.8976 2.11101 12.8976 2.02919 12.8976 1.94737C12.8976 1.6201 12.734 1.29282 12.5704 1.04737L11.6704 0.229187L6.27036 5.62919C5.94309 5.87464 5.77945 6.28373 5.77945 6.77464V14.9565C5.77945 15.8565 6.51582 16.5928 7.41582 16.5928H14.7795C15.434 16.5928 16.0067 16.1837 16.2522 15.611L18.7067 9.80188C18.7885 9.63825 18.7885 9.39279 18.7885 9.22915V7.59279H18.8704C18.8704 7.67464 18.8704 7.59282 18.8704 7.59282Z" fill="#2EC4B6"/>
</svg>
