<svg width="19" height="17" viewBox="0 0 19 17" fill="none" xmlns="http://www.w3.org/2000/svg">
<path d="M0.230957 16.7944H3.50368V6.97618H0.230957V16.7944ZM18.231 7.79436C18.231 6.89436 17.4946 6.158 16.5946 6.158H11.44L12.2582 2.39436C12.2582 2.31254 12.2582 2.23073 12.2582 2.14891C12.2582 1.82163 12.0946 1.49436 11.931 1.24891L11.031 0.430725L5.63096 5.83073C5.30368 6.07618 5.14005 6.48527 5.14005 6.97618V15.158C5.14005 16.058 5.87641 16.7944 6.77641 16.7944H14.14C14.7946 16.7944 15.3673 16.3853 15.6128 15.8125L18.0673 10.0034C18.1491 9.83978 18.1491 9.59433 18.1491 9.43069V7.79433H18.231C18.231 7.87618 18.231 7.79436 18.231 7.79436Z" fill="white"/>
</svg>
