<svg width="198" height="244" viewBox="0 0 198 244" fill="none" xmlns="http://www.w3.org/2000/svg">
<g clip-path="url(#clip0)">
<path d="M115.986 213.344H58.4204V242.619H115.986V213.344Z" fill="#F8604D"/>
<path d="M115.338 215.738H59.0398V221.315H115.338V215.738Z" fill="#F7422B"/>
<path d="M115.986 243.5H58.4205C58.186 243.5 57.9612 243.407 57.7954 243.242C57.6297 243.076 57.5366 242.852 57.5366 242.619V213.344C57.5366 213.11 57.6297 212.886 57.7955 212.721C57.9613 212.556 58.1861 212.463 58.4205 212.463H115.986C116.22 212.463 116.445 212.556 116.611 212.721C116.776 212.886 116.87 213.11 116.87 213.344V242.619C116.87 242.734 116.847 242.849 116.803 242.956C116.758 243.063 116.693 243.16 116.611 243.242C116.529 243.324 116.432 243.389 116.324 243.433C116.217 243.477 116.102 243.5 115.986 243.5ZM59.3055 241.739H115.102V214.226H59.3055V241.739Z" fill="#F86A58"/>
<path d="M169.013 95.048H4.90868C2.69914 95.048 0.907959 96.8317 0.907959 99.0319V210.369C0.907959 212.569 2.69914 214.353 4.90868 214.353H169.013C171.222 214.353 173.013 212.569 173.013 210.369V99.0319C173.013 96.8317 171.222 95.048 169.013 95.048Z" fill="#F86A58"/>
<path d="M169.255 216.019H5.15048C3.85544 216.017 2.61385 215.504 1.69812 214.592C0.782387 213.681 0.267297 212.444 0.265869 211.155V99.8142C0.267582 98.5247 0.782764 97.2885 1.69844 96.3766C2.61411 95.4648 3.85553 94.9518 5.15048 94.9501H169.255C170.55 94.9515 171.792 95.4644 172.708 96.3763C173.624 97.2882 174.139 98.5246 174.14 99.8142V211.155C174.139 212.444 173.624 213.681 172.708 214.592C171.792 215.504 170.55 216.017 169.255 216.019ZM5.15048 96.7137C4.3244 96.7145 3.53239 97.0417 2.94826 97.6234C2.36413 98.2051 2.03559 98.9938 2.03473 99.8164V211.157C2.03531 211.979 2.36372 212.768 2.94788 213.35C3.53204 213.932 4.32421 214.26 5.15048 214.26H169.255C170.082 214.26 170.874 213.932 171.458 213.351C172.042 212.769 172.37 211.98 172.371 211.158V99.8175C172.37 98.9948 172.042 98.2061 171.458 97.6245C170.874 97.0428 170.082 96.7156 169.255 96.7148L5.15048 96.7137Z" fill="#F7422B"/>
<path d="M164.456 183.309C164.456 184.091 163.737 184.813 162.869 184.813H10.8684C9.9985 184.813 9.15454 184.088 9.15454 183.309V105.364C9.15454 104.581 9.9985 103.887 10.8684 103.887H162.869C163.737 103.887 164.456 104.581 164.456 105.364V183.309Z" fill="#FF9385"/>
<path d="M87.2023 205.521C87.9206 205.521 88.5028 204.941 88.5028 204.226C88.5028 203.51 87.9206 202.931 87.2023 202.931C86.4841 202.931 85.9019 203.51 85.9019 204.226C85.9019 204.941 86.4841 205.521 87.2023 205.521Z" fill="#F7422B"/>
<path d="M95.3182 206.074C96.3434 206.074 97.1745 205.247 97.1745 204.226C97.1745 203.205 96.3434 202.377 95.3182 202.377C94.293 202.377 93.4619 203.205 93.4619 204.226C93.4619 205.247 94.293 206.074 95.3182 206.074Z" fill="#F7422B"/>
<path d="M103.433 206.074C104.458 206.074 105.289 205.247 105.289 204.226C105.289 203.205 104.458 202.377 103.433 202.377C102.408 202.377 101.577 203.205 101.577 204.226C101.577 205.247 102.408 206.074 103.433 206.074Z" fill="#F7422B"/>
<path d="M70.9718 206.074C71.997 206.074 72.828 205.247 72.828 204.226C72.828 203.205 71.997 202.377 70.9718 202.377C69.9466 202.377 69.1155 203.205 69.1155 204.226C69.1155 205.247 69.9466 206.074 70.9718 206.074Z" fill="#F7422B"/>
<path d="M79.0875 206.074C80.1127 206.074 80.9438 205.247 80.9438 204.226C80.9438 203.205 80.1127 202.377 79.0875 202.377C78.0623 202.377 77.2312 203.205 77.2312 204.226C77.2312 205.247 78.0623 206.074 79.0875 206.074Z" fill="#F7422B"/>
<path opacity="0.35" d="M91.5227 184.813H11.0421C10.1787 184.813 9.15454 183.983 9.15454 183.201V105.518C9.15454 104.74 10.1744 103.887 11.0421 103.887H31.6717L91.5227 184.813Z" fill="white"/>
<path opacity="0.35" d="M125.802 184.813H108.99L108.877 184.555L49.0256 103.887H65.8379L125.689 184.555L125.802 184.813Z" fill="white"/>
<path d="M1.92893 191.799C1.81398 191.801 1.69976 191.78 1.5929 191.738C1.48603 191.696 1.38864 191.633 1.30634 191.553C1.22405 191.473 1.1585 191.377 1.11346 191.272C1.06842 191.167 1.04479 191.054 1.04395 190.939C1.04308 190.704 1.13541 190.479 1.30078 190.312C1.46616 190.145 1.69118 190.05 1.92677 190.047L171.993 189.757C172.23 189.761 172.455 189.858 172.62 190.026C172.785 190.194 172.878 190.42 172.877 190.655C172.877 190.77 172.854 190.884 172.81 190.991C172.765 191.097 172.7 191.193 172.618 191.274C172.536 191.355 172.439 191.42 172.332 191.463C172.225 191.507 172.11 191.529 171.994 191.528L1.93001 191.799H1.92893Z" fill="#F7422B"/>
<path d="M28.9604 115.031L35.0883 97.7754L32.3903 96.8468L29.1741 79.1807L36.8248 76.3864L39.279 70.0542L41.3468 71.2364L66.7196 65.5974L71.1995 85.5817C71.9308 88.8495 71.8355 92.247 70.9221 95.469C67.4006 108.404 55.1599 108.479 55.1599 108.479L51.2585 118.842L28.9604 115.031Z" fill="#FFAFA5"/>
<path d="M51.5045 119.273L28.4424 115.334L34.594 98.0129L32.047 97.1381L28.7316 78.9303L36.5237 76.0823L39.0772 69.4954L41.4061 70.8227L67.0099 65.1321L71.574 85.4925C72.3175 88.8237 72.2204 92.2865 71.2912 95.5712C70.4731 98.5803 69.1154 101.149 67.2581 103.213C65.7528 104.881 63.9238 106.228 61.8814 107.172C59.8537 108.126 57.6656 108.696 55.4286 108.854L51.5045 119.273ZM29.4784 114.728L51.0038 118.406L54.889 108.094H55.1556C55.1858 108.094 58.1968 108.053 61.5824 106.462C66.1044 104.339 69.1198 100.606 70.5465 95.368C71.4412 92.2049 71.535 88.8704 70.8195 85.6623L66.4227 66.0574L41.2766 71.6459L39.4689 70.6163L37.114 76.6917L29.6036 79.4376L32.7226 96.5631L35.5783 97.5443L29.4784 114.728Z" fill="#F7422B"/>
<path d="M31.9263 99.6003L27.2036 78.1662C25.6095 70.9345 29.7247 65.0118 36.3771 61.1331L51.387 52.328C55.4881 49.9701 60.5821 49.8884 64.6681 52.2807C66.3009 53.2383 67.7536 54.5742 68.5965 56.4409C68.5965 56.4409 72.6695 66.4992 68.0277 71.4299C68.0277 71.4299 55.8874 65.6738 51.1917 72.0565C51.1917 72.0565 60.322 78.1824 49.6473 87.8118L51.4529 95.4734L46.3319 96.6115C46.3319 96.6115 45.7049 87.7989 39.8727 87.5614C39.8727 87.5614 34.8165 88.0063 37.0537 98.4643L31.9263 99.6003Z" fill="#F86A58"/>
<path d="M66.0419 53.2232C62.6491 52.3671 59.0546 52.8687 56.0287 54.6204L41.0198 63.4255C34.3674 67.3041 30.2523 73.2268 31.8463 80.4586L35.873 98.7287L31.924 99.6046L27.2002 78.1705C25.6073 70.9388 29.7224 65.0171 36.3737 61.1374L51.3837 52.3323C55.4902 49.9744 60.5788 49.8927 64.6648 52.285C65.1459 52.5642 65.6062 52.8778 66.0419 53.2232Z" fill="#F7422B"/>
<path d="M55.1167 141.632C55.1167 141.632 47.5557 175.67 9.54399 184.333L9.49219 104.502C9.49219 104.502 20.6007 101.241 32.9267 107.121L39.5812 117.062H52.532L53.6717 121.457L86.0897 144.026L99.348 121.274L111.984 125.988L96.9694 159.922C96.4821 161.023 95.7793 162.016 94.9022 162.844C94.025 163.671 92.9911 164.316 91.8607 164.741C90.7304 165.166 89.5263 165.363 88.3188 165.32C87.1113 165.276 85.9246 164.993 84.828 164.488L52.6356 149.683" fill="white"/>
<path d="M111.861 125.985L96.8455 159.921C96.3583 161.022 95.6555 162.016 94.7781 162.844C93.9007 163.672 92.8664 164.317 91.7357 164.742C90.6049 165.167 89.4004 165.364 88.1925 165.32C86.9846 165.276 85.7976 164.993 84.7009 164.487L52.1901 149.549C47.4771 160.151 35.7577 178.334 9.42114 184.337V177.315C34.0082 170.767 45.1308 153.405 49.6938 143.139L53.7949 145.025L53.9568 145.099L82.2025 158.083C83.2991 158.588 84.4857 158.87 85.6932 158.914C86.9006 158.957 88.1047 158.761 89.235 158.336C90.3653 157.91 91.3992 157.265 92.2764 156.438C93.1536 155.61 93.8564 154.617 94.3439 153.516L107.28 124.284L111.861 125.985Z" fill="#FFDDD9"/>
<path d="M109.994 103.117L103.811 103.608L106.387 110.174L103.141 117.375L101.778 120.212L112.2 122.962L115.777 114.986C121.112 114.534 121.112 110.806 121.112 110.806C117.01 109.063 112.188 105.142 109.994 103.117Z" fill="#E4F0FF"/>
<path d="M112.419 123.421L101.226 120.467L102.79 117.216L105.967 110.165L103.26 103.265L110.133 102.719L110.257 102.834C112.45 104.858 117.248 108.745 121.276 110.454L121.522 110.554V110.808C121.473 111.574 121.215 112.312 120.777 112.944C120.14 113.89 118.798 115.061 116.044 115.35L112.419 123.421ZM102.328 119.961L111.981 122.508L115.517 114.624L115.744 114.604C119.915 114.251 120.593 111.84 120.708 111.051C116.715 109.279 112.096 105.557 109.862 103.514L104.366 103.951L106.811 110.184L103.496 117.543L102.328 119.961Z" fill="#F7422B"/>
<path d="M9.15434 184.813L9.10254 104.21L9.3799 104.128C9.49537 104.095 12.2561 103.294 16.5762 103.209C19.1093 103.16 21.6408 103.37 24.1309 103.836C27.2315 104.416 30.2429 105.397 33.0885 106.754L33.1835 106.8L39.783 116.643H52.8223L54.0008 121.204L85.9569 143.457L99.1678 120.789L112.493 125.762L97.3137 160.071C96.8057 161.219 96.0731 162.255 95.1587 163.117C94.2443 163.98 93.1665 164.653 91.9881 165.096C90.8098 165.539 89.5545 165.744 88.2957 165.699C87.0369 165.654 85.7997 165.36 84.6564 164.833L52.5039 150.045C50.9362 153.506 49.0602 156.821 46.8984 159.949C43.0842 165.485 38.36 170.341 32.9244 174.313C26.1857 179.22 18.3472 182.716 9.62488 184.705L9.15434 184.813ZM9.87634 104.795L9.92816 183.844C29.1385 179.33 40.2729 168.153 46.2443 159.538C48.9605 155.619 51.2175 151.404 52.9712 146.974C54.2544 143.703 54.7357 141.571 54.7401 141.55L55.4955 141.716C55.4761 141.804 55.0023 143.911 53.7029 147.226C53.4536 147.871 53.1633 148.576 52.8244 149.344L84.9856 164.137C86.0355 164.621 87.1718 164.891 88.3279 164.933C89.4841 164.975 90.637 164.786 91.7193 164.379C92.8016 163.972 93.7916 163.355 94.6315 162.562C95.4714 161.77 96.1444 160.819 96.6111 159.765L111.466 126.203L99.5196 121.744L86.2116 144.574L53.3274 121.676L52.2276 117.418H39.3729L32.6622 107.408C27.6511 105.054 22.1624 103.882 16.6226 103.984C13.1648 104.049 10.6815 104.598 9.87958 104.799L9.87634 104.795Z" fill="#F7422B"/>
<path d="M39.6104 116.695L32.9796 117.913L23.8191 104.024L31.3295 103.883L39.6104 116.695Z" fill="white"/>
<path d="M32.7972 118.339L23.1111 103.651L31.5377 103.494L40.2493 116.97L32.7972 118.339ZM24.5281 104.396L33.162 117.488L38.9726 116.421L31.1201 104.276L24.5281 104.396Z" fill="#F7422B"/>
<path d="M39.7517 116.512L42.3915 122.691L56.686 122.638L53.4666 116.462L39.7517 116.512Z" fill="white"/>
<path d="M42.1357 123.076L39.1667 116.128L53.7019 116.076L57.3216 123.022L42.1357 123.076ZM40.3356 116.891L42.6473 122.3L56.0503 122.252L53.2324 116.845L40.3356 116.891Z" fill="#F7422B"/>
<path d="M37.848 121.467L36.9986 134.87C36.9986 134.87 35.0258 157.54 20.1788 161.438C20.1788 161.438 13.4811 162.966 5.46776 162.068L1.71851 156.831L6.18869 151.653C6.18869 151.653 8.63099 152.919 13.9387 153.15C16.0505 153.247 18.1582 152.884 20.1145 152.086C22.0707 151.288 23.8282 150.074 25.2641 148.529C28.8591 144.65 32.8414 137.767 33.5149 126.031L34.0275 120.575L37.848 121.467Z" fill="white"/>
<path d="M10.6297 162.734C8.89179 162.736 7.15512 162.642 5.42777 162.452C5.3737 162.445 5.32156 162.428 5.27471 162.4C5.22786 162.373 5.18734 162.336 5.1558 162.291L1.40654 157.054C1.35635 156.984 1.3312 156.899 1.33511 156.813C1.33903 156.727 1.37178 156.645 1.42814 156.579L5.89831 151.402C5.95491 151.336 6.0324 151.291 6.11808 151.275C6.20377 151.258 6.29256 151.271 6.36994 151.311C6.39368 151.323 8.82196 152.541 13.9591 152.765C16.0149 152.861 18.0669 152.508 19.9712 151.731C21.8756 150.954 23.5863 149.771 24.9835 148.266C28.3291 144.661 32.4507 137.872 33.1317 126.008C33.1312 126.003 33.1312 125.999 33.1317 125.994L33.6443 120.539C33.6493 120.484 33.666 120.431 33.6934 120.383C33.7208 120.335 33.7581 120.294 33.803 120.262C33.8482 120.23 33.8996 120.208 33.9539 120.197C34.0082 120.186 34.0641 120.187 34.1181 120.199L37.9354 121.092C38.0245 121.113 38.1034 121.165 38.158 121.238C38.2125 121.311 38.2392 121.401 38.2332 121.492L37.3871 134.894V134.903C37.3871 134.96 36.8615 140.695 34.5207 146.833C33.1414 150.447 31.4071 153.496 29.3684 155.895C26.802 158.914 23.7445 160.905 20.2791 161.814H20.2672C20.2154 161.826 16.1554 162.734 10.6297 162.734ZM5.68571 161.704C13.3677 162.533 19.8614 161.115 20.0891 161.059C27.5909 159.086 31.6812 152.089 33.7954 146.566C36.0758 140.597 36.6014 135.013 36.6198 134.835L37.4443 121.763L34.3782 121.046L33.9077 126.053C33.599 131.418 32.5705 136.234 30.8491 140.367C29.4925 143.626 27.7118 146.458 25.5609 148.783C24.1639 150.289 22.4686 151.489 20.5819 152.309C18.6953 153.128 16.6585 153.549 14.6002 153.544C14.3778 153.544 14.1566 153.544 13.9332 153.529C9.54829 153.338 7.0941 152.455 6.3041 152.119L2.22137 156.848L5.68571 161.704Z" fill="#F7422B"/>
<path d="M32.9795 117.913L39.7927 116.618L42.3915 122.691L37.7918 124.875L33.626 123.411L32.9795 117.913Z" fill="white"/>
<path d="M37.7918 125.26C37.7481 125.26 37.7047 125.253 37.6634 125.239L33.4976 123.774C33.4287 123.75 33.3681 123.706 33.3229 123.649C33.2776 123.592 33.2495 123.524 33.2418 123.451L32.5943 117.954C32.5827 117.857 32.6085 117.76 32.6664 117.681C32.7243 117.603 32.81 117.549 32.9062 117.531L39.7194 116.241C39.8067 116.224 39.8973 116.237 39.976 116.278C40.0546 116.32 40.1165 116.387 40.151 116.469L42.7488 122.54C42.7877 122.632 42.7897 122.735 42.7543 122.828C42.719 122.921 42.6489 122.997 42.5588 123.04L37.9602 125.224C37.9077 125.248 37.85 125.261 37.7918 125.26ZM33.9822 123.127L37.7703 124.458L41.8897 122.501L39.5596 117.056L33.408 118.225L33.9822 123.127Z" fill="#F7422B"/>
<path d="M96.2189 126.461L95.8933 127.161L99.5814 128.864L99.907 128.165L96.2189 126.461Z" fill="#F7422B"/>
<path d="M95.4976 128.166L95.1516 128.855L96.8091 129.68L97.1551 128.991L95.4976 128.166Z" fill="#F7422B"/>
<path d="M148.629 26.823C148.413 26.9445 148.165 26.9973 147.918 26.9744C147.671 26.9514 147.437 26.8539 147.247 26.6948C147.057 26.5357 146.92 26.3226 146.856 26.0841C146.791 25.8456 146.801 25.5931 146.884 25.3603L155.391 1.65755C155.499 1.35499 155.724 1.10779 156.016 0.970334C156.307 0.832879 156.642 0.816429 156.946 0.924598C157.25 1.03277 157.498 1.2567 157.636 1.54713C157.774 1.83756 157.79 2.1707 157.682 2.47326L149.172 26.176C149.075 26.4497 148.882 26.6794 148.629 26.823Z" fill="white"/>
<path d="M148.807 27.1303C148.528 27.2871 148.208 27.3552 147.889 27.3256C147.57 27.296 147.268 27.17 147.023 26.9646C146.778 26.7592 146.602 26.4842 146.518 26.1763C146.435 25.8685 146.447 25.5425 146.555 25.2421L155.067 1.53823C155.207 1.14766 155.498 0.82863 155.874 0.651282C156.251 0.473933 156.683 0.452781 157.075 0.592479C157.467 0.732851 157.787 1.02219 157.965 1.39708C158.143 1.77197 158.165 2.20185 158.025 2.59252L149.51 26.2931C149.384 26.6469 149.134 26.944 148.807 27.1303ZM156.119 1.31791C155.939 1.41888 155.802 1.58157 155.733 1.77574L147.222 25.4785C147.181 25.5855 147.161 25.6996 147.165 25.8142C147.168 25.9288 147.195 26.0415 147.243 26.1457C147.291 26.2498 147.359 26.3434 147.444 26.4209C147.529 26.4984 147.628 26.5582 147.737 26.5969C147.845 26.6355 147.96 26.6521 148.075 26.6458C148.19 26.6395 148.302 26.6104 148.406 26.5602C148.509 26.51 148.602 26.4397 148.678 26.3534C148.753 26.2671 148.811 26.1666 148.847 26.0578L157.357 2.35501C157.434 2.14051 157.422 1.90438 157.324 1.69846C157.227 1.49253 157.051 1.33364 156.836 1.25665C156.729 1.2181 156.616 1.2011 156.503 1.20663C156.389 1.21217 156.279 1.24014 156.176 1.28889C156.155 1.29734 156.135 1.30702 156.115 1.31791H156.119Z" fill="#F7422B"/>
<path d="M196.293 72.1673C196.039 72.3105 195.741 72.3574 195.455 72.2995L170.677 67.316C170.518 67.2866 170.367 67.2261 170.232 67.1379C170.097 67.0497 169.981 66.9356 169.891 66.8024C169.8 66.6691 169.737 66.5193 169.706 66.3616C169.674 66.204 169.674 66.0416 169.706 65.884C169.738 65.7265 169.802 65.5768 169.892 65.4437C169.983 65.3107 170.099 65.1969 170.234 65.1091C170.369 65.0212 170.521 64.961 170.68 64.9319C170.838 64.9029 171.001 64.9056 171.159 64.9399L195.935 69.9265C196.178 69.9755 196.401 70.0974 196.573 70.2758C196.745 70.4543 196.858 70.6808 196.896 70.925C196.935 71.1692 196.898 71.4193 196.79 71.642C196.682 71.8646 196.509 72.049 196.292 72.1705L196.293 72.1673Z" fill="white"/>
<path d="M196.466 72.4746C196.138 72.658 195.756 72.7187 195.387 72.6455L170.608 67.661C170.303 67.5999 170.024 67.4502 169.804 67.2309C169.585 67.0115 169.436 66.7323 169.377 66.4286C169.317 66.125 169.349 65.8105 169.469 65.525C169.589 65.2395 169.791 64.9958 170.05 64.8248C170.221 64.7101 170.414 64.6307 170.617 64.5912C170.82 64.5518 171.028 64.553 171.23 64.5948L196.007 69.5783C196.323 69.6403 196.612 69.7974 196.835 70.0282C197.058 70.259 197.205 70.5525 197.255 70.8689C197.305 71.1854 197.257 71.5095 197.116 71.7977C196.975 72.0858 196.749 72.3239 196.468 72.48L196.466 72.4746ZM170.493 65.3815L170.439 65.4148C170.297 65.5089 170.186 65.6429 170.121 65.7997C170.055 65.9565 170.038 66.1291 170.07 66.2958C170.103 66.4626 170.185 66.6159 170.305 66.7364C170.425 66.857 170.579 66.9393 170.746 66.9732L195.524 71.9577C195.746 71.9966 195.974 71.9476 196.16 71.8212C196.347 71.6947 196.476 71.5008 196.52 71.2808C196.565 71.0608 196.521 70.8322 196.399 70.6439C196.276 70.4555 196.085 70.3222 195.865 70.2725L171.088 65.2891C170.885 65.2462 170.674 65.2779 170.493 65.3783V65.3815Z" fill="#F7422B"/>
<path d="M156.815 48.9255C156.527 49.0841 156.188 49.1231 155.872 49.034C155.555 48.9448 155.287 48.7347 155.125 48.4495C154.963 48.1642 154.921 47.8268 155.008 47.5108C155.094 47.1948 155.303 46.9257 155.588 46.7621L180.591 32.5952C180.878 32.442 181.214 32.407 181.528 32.4976C181.841 32.5882 182.106 32.7973 182.266 33.08C182.426 33.3628 182.469 33.6968 182.385 34.0105C182.301 34.3242 182.097 34.5928 181.817 34.7586L156.819 48.9233L156.815 48.9255Z" fill="white"/>
<path d="M156.993 49.2307C156.626 49.4315 156.194 49.4798 155.791 49.3648C155.389 49.2499 155.048 48.9811 154.843 48.617C154.412 47.8647 154.677 46.8706 155.418 46.4526L180.421 32.2857H180.427C180.793 32.0849 181.225 32.0366 181.627 32.1514C182.029 32.2661 182.369 32.5346 182.573 32.8983C182.78 33.2617 182.837 33.6909 182.733 34.0955C182.683 34.2979 182.593 34.4881 182.467 34.6544C182.341 34.8207 182.182 34.9597 182 35.0627L156.993 49.2307ZM156.641 48.6181L181.646 34.4502C181.745 34.3942 181.832 34.3186 181.901 34.2281C181.97 34.1375 182.02 34.0339 182.048 33.9236C182.106 33.6952 182.074 33.4534 181.959 33.2476C181.845 33.0477 181.657 32.8999 181.436 32.8355C181.214 32.7711 180.976 32.7952 180.772 32.9026L155.772 47.0673C155.568 47.1848 155.419 47.3774 155.358 47.6034C155.296 47.8294 155.326 48.0705 155.442 48.2745C155.557 48.4784 155.749 48.6288 155.975 48.6929C156.201 48.757 156.444 48.7298 156.65 48.617L156.641 48.6181Z" fill="#F7422B"/>
<path d="M115.192 121.985L100.825 115.514L97.9226 121.904L112.289 128.375L115.192 121.985Z" fill="white"/>
<path d="M112.482 128.885L97.4119 122.096L100.633 115.003L115.705 121.792L112.482 128.885ZM98.4361 121.711L112.097 127.864L114.681 122.177L101.02 116.023L98.4361 121.711Z" fill="#F7422B"/>
<path d="M115.775 87.6506L128.343 106.188L119.612 112.057C119.612 112.057 117.269 112.651 104.337 95.3402L115.775 87.6506Z" fill="#FF9385"/>
<path d="M129.034 106.322L119.82 112.516L119.732 112.528C119.182 112.663 118.062 111.974 116.494 110.54C113.548 107.843 109.332 102.833 103.955 95.6357L103.66 95.2392L115.927 86.9918L129.034 106.322ZM119.489 111.543L127.681 106.036L115.651 88.289L105.014 95.4401C109.804 101.828 113.668 106.467 116.486 109.204C118.381 111.044 119.23 111.461 119.489 111.543Z" fill="#F7422B"/>
<path d="M99.7466 98.6115L114.48 88.7069L102.293 70.7302L87.5588 80.6348C87.1229 80.9276 86.7493 81.303 86.4591 81.7396C86.169 82.1763 85.968 82.6656 85.8678 83.1795C85.7676 83.6935 85.7701 84.2221 85.875 84.7351C85.98 85.2482 86.1854 85.7356 86.4796 86.1695L94.1864 97.5379C94.4805 97.9721 94.8577 98.3444 95.2964 98.6334C95.7351 98.9224 96.2267 99.1225 96.743 99.2222C97.2594 99.3219 97.7905 99.3193 98.3059 99.2145C98.8212 99.1097 99.3108 98.9048 99.7466 98.6115Z" fill="#F86A58"/>
<path d="M115.149 88.8413L100.015 99.0146C99.0289 99.6759 97.8196 99.9208 96.6524 99.6953C95.4852 99.4698 94.4554 98.7925 93.789 97.812L86.0823 86.4437C85.418 85.4614 85.1722 84.257 85.3986 83.0945C85.625 81.932 86.3051 80.9063 87.2899 80.2426L102.423 70.0693L115.149 88.8413ZM87.8306 81.0325C87.0573 81.5537 86.5232 82.3592 86.3456 83.2721C86.168 84.185 86.3612 85.1308 86.883 85.902L94.5888 97.2703C95.1124 98.0401 95.9212 98.5718 96.8377 98.7488C97.7543 98.9259 98.704 98.7339 99.4788 98.215L113.814 88.578L102.166 71.3955L87.8306 81.0325Z" fill="#F7422B"/>
<path d="M102.292 70.7636L114.71 89.0821L154.983 75.8975C156.539 75.3881 157.232 73.5009 156.317 72.1511L133.59 38.619C132.673 37.2659 130.651 37.2036 129.597 38.4524L102.292 70.7636Z" fill="white"/>
<path d="M113.701 88.1611L114.445 89.2605L154.658 76.1146C155.02 75.9962 155.35 75.7958 155.621 75.5291C155.893 75.2624 156.098 74.9366 156.222 74.5774C156.345 74.2182 156.384 73.8353 156.334 73.4589C156.284 73.0825 156.147 72.7227 155.933 72.4079L154.65 70.5143L112.668 85.2024L113.701 88.1611Z" fill="#FF9385"/>
<path d="M101.53 78.3142L91.78 84.8682L92.3168 85.6601L102.067 79.1061L101.53 78.3142Z" fill="#F7422B"/>
<path d="M104.373 82.5096L94.6233 89.0636L95.1601 89.8555L104.91 83.3015L104.373 82.5096Z" fill="#F7422B"/>
<path d="M107.198 86.675L97.4482 93.229L98.005 94.0503L107.755 87.4963L107.198 86.675Z" fill="#F7422B"/>
<path d="M157.03 73.3397L155.493 75.5719L150.89 77.3495L126.69 41.6529L130.072 38.1493L132.636 37.3562L157.03 73.3397Z" fill="#F86A58"/>
<path d="M155.143 76.4241L114.531 89.7011L101.645 70.6991L129.165 38.1074C129.471 37.7448 129.857 37.458 130.293 37.2698C130.73 37.0816 131.204 36.9971 131.679 37.023C132.145 37.0422 132.601 37.1697 133.01 37.3952C133.418 37.6208 133.768 37.9383 134.031 38.3223L156.763 71.8534C157.196 72.5271 157.349 73.3423 157.189 74.1262C157.029 74.9101 156.569 75.6013 155.906 76.0533C155.671 76.2118 155.414 76.3366 155.143 76.4241ZM130.004 38.8092L103.023 70.7679L114.977 88.4018L154.8 75.3827C155.085 75.2911 155.344 75.1338 155.556 74.9234C155.768 74.7131 155.927 74.4558 156.02 74.1726C156.115 73.8959 156.143 73.6009 156.102 73.3114C156.061 73.0219 155.953 72.7459 155.786 72.5057L133.05 38.9747C132.763 38.5579 132.323 38.2704 131.824 38.1739C131.326 38.0774 130.809 38.1797 130.386 38.4588C130.242 38.5567 130.113 38.6751 130.004 38.8102V38.8092Z" fill="#F7422B"/>
<path d="M110.716 103.766C110.224 103.312 109.142 102.303 108.952 102.086C108.902 102.029 108.873 101.955 108.871 101.879C108.869 101.803 108.893 101.728 108.939 101.668C108.986 101.607 109.052 101.565 109.127 101.547C109.201 101.529 109.279 101.538 109.348 101.571L110.571 102.158C110.856 102.294 111.166 102.37 111.482 102.381C111.798 102.392 112.113 102.338 112.406 102.222C112.7 102.106 112.967 101.931 113.19 101.708C113.412 101.484 113.586 101.218 113.701 100.924C113.908 100.391 113.907 99.7985 113.697 99.2656C113.487 98.7327 113.083 98.2979 112.567 98.0473L108.607 96.1257C108.178 95.9169 107.711 95.7963 107.235 95.7713C106.758 95.7462 106.281 95.8172 105.833 95.9799C105.384 96.1427 104.973 96.3939 104.625 96.7184C104.276 97.043 103.996 97.4343 103.803 97.8689C103.756 97.9764 103.713 98.0839 103.672 98.1913C103.044 99.893 103.071 101.766 103.747 103.449L105.46 107.814" fill="#E4F0FF"/>
<path d="M105.098 107.953L103.385 103.587C102.672 101.816 102.645 99.8443 103.308 98.0538C103.352 97.9377 103.398 97.8227 103.447 97.712C103.656 97.2316 103.961 96.7987 104.343 96.4399C104.726 96.081 105.178 95.8037 105.672 95.6249C106.174 95.442 106.708 95.3614 107.241 95.388C107.775 95.4146 108.298 95.5478 108.778 95.7797L112.738 97.7013C113.055 97.8541 113.338 98.0675 113.572 98.3293C113.806 98.5912 113.986 98.8964 114.102 99.2274C114.217 99.5585 114.266 99.909 114.245 100.259C114.225 100.609 114.135 100.951 113.982 101.267C113.828 101.582 113.614 101.864 113.351 102.097C113.088 102.33 112.782 102.509 112.449 102.624C112.117 102.739 111.765 102.788 111.414 102.768C111.062 102.747 110.718 102.658 110.402 102.505L109.458 102.053C109.792 102.375 110.42 102.97 110.978 103.483L110.451 104.049C110.389 103.99 108.906 102.621 108.659 102.34C108.55 102.215 108.487 102.057 108.482 101.892C108.477 101.727 108.529 101.565 108.63 101.434C108.731 101.303 108.874 101.21 109.035 101.172C109.197 101.134 109.366 101.152 109.515 101.224L110.738 101.81C110.975 101.924 111.233 101.987 111.496 101.997C111.759 102.007 112.021 101.962 112.266 101.866C112.51 101.769 112.732 101.624 112.918 101.438C113.103 101.252 113.248 101.03 113.342 100.786C113.512 100.342 113.509 99.8507 113.335 99.4085C113.161 98.9664 112.827 98.6048 112.399 98.3945L108.444 96.4718C108.058 96.2828 107.637 96.1742 107.207 96.1528C106.777 96.1313 106.348 96.1975 105.944 96.3471C105.549 96.4903 105.186 96.7124 104.88 96.9997C104.573 97.2871 104.329 97.6337 104.161 98.0183C104.118 98.1183 104.076 98.2214 104.036 98.3246C103.441 99.937 103.468 101.712 104.112 103.306L105.823 107.671L105.098 107.953Z" fill="#F7422B"/>
<path d="M118.12 99.2897C117.953 99.0998 117.826 98.879 117.744 98.6398C117.663 98.4007 117.63 98.1479 117.647 97.896C117.663 97.6441 117.73 97.398 117.842 97.1717C117.955 96.9454 118.111 96.7434 118.302 96.5772L123.53 92.0193C123.915 91.6835 124.418 91.5138 124.929 91.5474C125.44 91.5811 125.916 91.8154 126.253 92.1988C126.591 92.5823 126.761 93.0836 126.727 93.5922C126.694 94.1009 126.458 94.5754 126.073 94.9114L120.844 99.4703C120.654 99.6366 120.432 99.7639 120.192 99.8449C119.952 99.9258 119.698 99.9589 119.445 99.9421C119.192 99.9253 118.945 99.8591 118.717 99.7471C118.49 99.6352 118.287 99.4798 118.12 99.2897Z" fill="#E4F0FF"/>
<path d="M118.74 100.178C118.367 100.035 118.038 99.7991 117.785 99.4923C117.531 99.1856 117.361 98.8188 117.291 98.4275C117.221 98.0362 117.254 97.6336 117.386 97.2586C117.519 96.8836 117.746 96.5489 118.046 96.2869L123.275 91.7291C123.504 91.5294 123.77 91.3767 124.058 91.2795C124.346 91.1823 124.651 91.1426 124.955 91.1627C125.258 91.1827 125.555 91.2621 125.828 91.3964C126.101 91.5306 126.344 91.7171 126.545 91.9451C126.745 92.1731 126.899 92.4382 126.996 92.7252C127.094 93.0123 127.134 93.3156 127.114 93.618C127.093 93.9204 127.014 94.2159 126.879 94.4876C126.744 94.7592 126.557 95.0018 126.328 95.2015L121.099 99.7604C120.781 100.037 120.393 100.222 119.978 100.296C119.562 100.37 119.134 100.329 118.74 100.178ZM125.357 92.0311C125.094 91.9304 124.809 91.9031 124.532 91.9519C124.255 92.0008 123.997 92.124 123.785 92.3083L118.556 96.8673C118.249 97.1361 118.061 97.5153 118.034 97.9219C118.007 98.3284 118.143 98.7291 118.412 99.036C118.545 99.1879 118.707 99.3121 118.889 99.4015C119.071 99.491 119.268 99.5439 119.471 99.5572C119.673 99.5706 119.876 99.5442 120.068 99.4795C120.26 99.4148 120.437 99.313 120.59 99.18L125.819 94.6211C126.126 94.3523 126.314 93.973 126.341 93.5663C126.368 93.1597 126.232 92.759 125.962 92.4523C125.797 92.2653 125.59 92.1208 125.357 92.0311Z" fill="#F7422B"/>
<path d="M127.665 96.4092L127.488 96.2079C126.835 95.4647 125.7 95.3897 124.954 96.0403L120.676 99.7695C119.93 100.42 119.855 101.55 120.508 102.293L120.685 102.494C121.338 103.237 122.473 103.313 123.219 102.662L127.497 98.9327C128.243 98.2822 128.319 97.1523 127.665 96.4092Z" fill="#E4F0FF"/>
<path d="M121.274 103.338C120.942 103.213 120.645 103.008 120.41 102.743L120.232 102.54C119.852 102.106 119.66 101.539 119.698 100.964C119.737 100.389 120.002 99.8533 120.437 99.4734L124.716 95.7431C125.151 95.3637 125.72 95.172 126.298 95.2101C126.875 95.2482 127.414 95.5129 127.796 95.9462L127.978 96.1493C128.359 96.5832 128.552 97.1499 128.513 97.725C128.475 98.3001 128.209 98.8365 127.774 99.2166L123.496 102.947C123.196 103.207 122.831 103.381 122.44 103.45C122.048 103.519 121.645 103.48 121.274 103.338ZM126.665 96.0698C126.425 95.978 126.165 95.9531 125.912 95.9978C125.659 96.0425 125.424 96.1551 125.23 96.3234L120.952 100.053C120.672 100.298 120.5 100.644 120.475 101.015C120.451 101.387 120.575 101.752 120.821 102.032L120.999 102.234C121.245 102.514 121.592 102.684 121.965 102.709C122.337 102.734 122.704 102.61 122.986 102.365L127.264 98.6351C127.545 98.3903 127.716 98.0443 127.741 97.6732C127.766 97.3022 127.642 96.9365 127.396 96.6566L127.218 96.4546C127.068 96.2829 126.878 96.1507 126.665 96.0698Z" fill="#F7422B"/>
<path d="M123.553 105.267C123.393 105.085 123.27 104.873 123.192 104.643C123.114 104.414 123.082 104.171 123.098 103.929C123.114 103.687 123.178 103.451 123.286 103.234C123.394 103.017 123.544 102.823 123.727 102.663L126.081 100.61C126.45 100.288 126.933 100.126 127.424 100.158C127.914 100.191 128.371 100.415 128.695 100.783C128.855 100.966 128.978 101.178 129.056 101.407C129.134 101.637 129.166 101.879 129.15 102.121C129.134 102.363 129.07 102.599 128.962 102.816C128.855 103.034 128.705 103.228 128.522 103.387L126.167 105.44C125.797 105.762 125.314 105.925 124.824 105.892C124.334 105.86 123.877 105.635 123.553 105.267Z" fill="#E4F0FF"/>
<path d="M124.143 106.135C123.804 106.005 123.502 105.794 123.263 105.521C122.872 105.075 122.675 104.494 122.714 103.904C122.753 103.314 123.026 102.763 123.472 102.373L125.827 100.321C126.048 100.128 126.306 99.9808 126.584 99.8869C126.863 99.793 127.157 99.7547 127.451 99.7741C127.744 99.7935 128.031 99.8703 128.295 100C128.558 100.13 128.794 100.31 128.988 100.53C129.181 100.751 129.33 101.007 129.424 101.284C129.518 101.562 129.557 101.855 129.537 102.147C129.518 102.44 129.441 102.725 129.31 102.988C129.18 103.25 128.999 103.485 128.778 103.678L126.424 105.729C126.117 105.997 125.742 106.176 125.34 106.247C124.938 106.319 124.525 106.28 124.143 106.135ZM127.829 100.636C127.691 100.584 127.545 100.552 127.397 100.543C127.205 100.529 127.012 100.554 126.83 100.616C126.647 100.677 126.479 100.774 126.334 100.901L123.981 102.953C123.836 103.079 123.717 103.233 123.632 103.405C123.546 103.576 123.496 103.763 123.483 103.955C123.47 104.146 123.495 104.338 123.557 104.519C123.619 104.701 123.716 104.868 123.843 105.013C123.97 105.157 124.124 105.275 124.297 105.36C124.469 105.445 124.657 105.495 124.849 105.508C125.041 105.521 125.233 105.496 125.416 105.434C125.598 105.373 125.766 105.276 125.911 105.15L128.265 103.097C128.455 102.932 128.599 102.72 128.683 102.483C128.767 102.246 128.788 101.991 128.744 101.744C128.7 101.496 128.592 101.264 128.431 101.07C128.271 100.876 128.063 100.727 127.827 100.636H127.829Z" fill="#F7422B"/>
<path d="M123.814 89.0791L123.417 88.6279C122.731 87.8482 121.541 87.7694 120.758 88.4521L118.367 90.5368C117.584 91.2194 117.504 92.4049 118.19 93.1847L118.587 93.6359C119.272 94.4156 120.463 94.4944 121.246 93.8118L123.637 91.727C124.42 91.0444 124.499 89.8589 123.814 89.0791Z" fill="#E4F0FF"/>
<path d="M119.209 94.5062C118.866 94.3741 118.559 94.1605 118.317 93.8839L117.92 93.4325C117.524 92.9805 117.324 92.3906 117.365 91.7921C117.405 91.1937 117.682 90.6358 118.136 90.2407L120.527 88.1557C120.751 87.9596 121.013 87.8095 121.295 87.7142C121.578 87.6188 121.877 87.58 122.175 87.5999C122.473 87.6199 122.763 87.6983 123.031 87.8306C123.298 87.9628 123.537 88.1464 123.732 88.3707L124.13 88.822C124.525 89.2742 124.725 89.8641 124.684 90.4624C124.644 91.0607 124.367 91.6187 123.914 92.0139L121.521 94.0989C121.297 94.2951 121.037 94.4453 120.754 94.5407C120.472 94.636 120.173 94.6747 119.875 94.6545C119.647 94.6384 119.423 94.5884 119.209 94.5062ZM122.555 88.4652C122.414 88.4117 122.266 88.3795 122.116 88.3696C121.92 88.356 121.723 88.3814 121.537 88.4441C121.351 88.5068 121.179 88.6057 121.031 88.735L118.639 90.821C118.34 91.0817 118.158 91.4495 118.132 91.8437C118.106 92.238 118.237 92.6265 118.498 92.9242L118.896 93.3766C119.026 93.5239 119.183 93.6444 119.36 93.7311C119.536 93.8178 119.727 93.8691 119.924 93.8819C120.12 93.8948 120.317 93.869 120.503 93.8061C120.689 93.7432 120.861 93.6444 121.008 93.5153L123.4 91.4303C123.698 91.1696 123.88 90.8019 123.907 90.4076C123.933 90.0134 123.801 89.6248 123.54 89.3271L123.143 88.8747C122.984 88.6933 122.784 88.5528 122.558 88.4652H122.555Z" fill="#F7422B"/>
<path d="M31.6294 100.06L26.8225 78.2437C26.04 74.6907 26.557 71.3107 28.3604 68.1962C30.0073 65.3514 32.6374 62.8613 36.1784 60.7968L51.1872 51.9917C55.4718 49.5306 60.7093 49.5134 64.86 51.9444C66.78 53.0696 68.155 54.5237 68.946 56.2787L68.9525 56.2927C69.6576 58.1445 70.1542 60.0686 70.4332 62.0295C70.6922 63.8855 70.6998 65.576 70.4537 67.0667C70.1407 68.9528 69.4187 70.5058 68.3071 71.6879L68.1129 71.8932L67.8582 71.7718C67.8279 71.7578 64.8158 70.3435 61.2846 69.7201C56.8327 68.9356 53.622 69.6943 51.7312 71.977C52.614 72.6745 54.9473 74.8207 55.1847 78.1588C55.4124 81.326 53.69 84.6157 50.0649 87.9387L51.9082 95.7593L45.9659 97.0802L45.9346 96.6342C45.7909 95.1488 45.4468 93.6894 44.9115 92.2956C43.8021 89.5099 42.1055 88.0451 39.8758 87.9419C39.7247 87.9634 38.7836 88.1364 37.9904 89.2229C37.0978 90.4438 36.2755 93.0231 37.4216 98.3784L37.5015 98.7524L31.6294 100.06ZM58.1192 50.9041C55.8217 50.9072 53.5654 51.5121 51.5769 52.658L36.5755 61.461C29.3446 65.6781 26.1523 71.5794 27.5844 78.0793L32.2251 99.1361L36.5971 98.1689C36.1265 95.84 35.9862 93.8259 36.1784 92.1763C36.3446 90.763 36.7536 89.6088 37.3946 88.7436C38.4577 87.3121 39.7808 87.1799 39.837 87.1745H39.8618H39.8866C42.4368 87.282 44.428 88.9586 45.6475 92.0322C46.1571 93.3543 46.501 94.7339 46.6717 96.1398L50.9887 95.1812L49.2198 87.6775L49.3892 87.526C52.9442 84.318 54.6386 81.1852 54.4249 78.22C54.1605 74.551 51.0092 72.3973 50.9714 72.3758L50.6379 72.1511L50.8754 71.8287C52.0075 70.293 53.6393 69.3031 55.7265 68.8883C57.3659 68.5659 59.288 68.5895 61.4389 68.9711C63.6721 69.3855 65.8502 70.0537 67.9305 70.9625C70.0404 68.5208 70.0479 64.8366 69.6702 62.1402C69.3965 60.2447 68.9174 58.3842 68.2413 56.5914C67.516 54.9923 66.248 53.6532 64.4726 52.615C62.5461 51.4902 60.3524 50.8994 58.1192 50.9041Z" fill="#F7422B"/>
</g>
<defs>
<clipPath id="clip0">
<rect width="197" height="243" fill="white" transform="translate(0.265869 0.5)"/>
</clipPath>
</defs>
</svg>
